<svg xmlns="http://www.w3.org/2000/svg" xml:space="preserve" viewBox="0 0 122.88 93.04"><path d="M7.09 43.87h7.11v-1.65c0-2.2.44-4.3 1.24-6.22.83-1.99 2.04-3.79 3.55-5.29 1.5-1.5 3.3-2.72 5.29-3.55 1.92-.8 4.02-1.24 6.22-1.24h28.29V15.65c-.46-.17-.9-.38-1.32-.62a8.084 8.084 0 0 1-3.36-3.87 8.095 8.095 0 0 1 0-6.16A8.084 8.084 0 0 1 58.48.63c.95-.4 2-.61 3.08-.61s2.13.22 3.08.61A8.084 8.084 0 0 1 69.01 5a8.095 8.095 0 0 1 0 6.16c-.41.99-1.01 1.88-1.75 2.62l-.04.04c-.47.46-1 .87-1.57 1.21-.42.25-.86.46-1.32.62V25.92h28.29c2.2 0 4.3.44 6.22 1.24 2 .83 3.79 2.04 5.29 3.55 1.5 1.5 2.72 3.3 3.55 5.29.8 1.92 1.24 4.02 1.24 6.22v1.65h6.86c.95 0 1.87.19 2.71.54.87.36 1.65.89 2.3 1.54l.04.04c.64.65 1.15 1.41 1.5 2.26.35.84.54 1.75.54 2.71v18.92c0 .95-.19 1.87-.54 2.71-.36.86-.89 1.65-1.54 2.3a7.084 7.084 0 0 1-5.01 2.08h-6.87c-.03 2.11-.47 4.14-1.24 5.99-.83 2-2.04 3.79-3.55 5.29-1.5 1.5-3.3 2.72-5.29 3.55-1.92.8-4.02 1.24-6.22 1.24H30.5c-2.2 0-4.3-.44-6.22-1.24-2-.83-3.79-2.04-5.29-3.55-1.5-1.5-2.72-3.3-3.55-5.29-.77-1.85-1.21-3.88-1.24-5.99H7.09c-.95 0-1.87-.19-2.71-.54-.87-.36-1.65-.89-2.3-1.54l-.04-.04a7.029 7.029 0 0 1-1.5-2.26C.19 71.75 0 70.83 0 69.88V50.96c0-.95.19-1.87.54-2.71.36-.87.89-1.65 1.54-2.3.65-.65 1.43-1.18 2.3-1.54.84-.35 1.75-.54 2.71-.54zM47 74.3a2.16 2.16 0 0 1-.37-.37c-.33-.4-.5-.86-.51-1.33-.01-.47.14-.94.45-1.35.11-.14.23-.27.38-.39.52-.43 1.21-.66 1.89-.67.68-.01 1.36.19 1.9.6 1.86 1.43 3.7 2.47 5.52 3.16 1.8.68 3.58 1 5.34.98 1.77-.02 3.56-.39 5.39-1.08 1.85-.7 3.71-1.75 5.6-3.1.56-.4 1.25-.58 1.93-.55.68.03 1.36.27 1.87.72.13.12.25.25.36.4.3.42.44.9.41 1.37-.03.47-.22.93-.56 1.32-.12.13-.26.26-.42.37-2.37 1.71-4.75 3.01-7.16 3.9-2.42.89-4.87 1.36-7.35 1.39-2.49.03-4.95-.39-7.4-1.28-2.43-.88-4.85-2.23-7.23-4.06L47 74.3zm-6.23-30.58c.6 0 1.2.06 1.77.18.58.12 1.15.29 1.7.52.56.23 1.09.51 1.58.84.48.32.93.68 1.33 1.08l.06.05c.42.42.8.88 1.13 1.38l.02.03c.32.48.6 1 .82 1.55.23.55.4 1.12.52 1.7.11.58.18 1.17.18 1.77 0 .6-.06 1.2-.18 1.77-.12.58-.29 1.15-.52 1.71a9.044 9.044 0 0 1-1.97 2.96c-.83.83-1.84 1.51-2.97 1.97-.55.23-1.12.4-1.71.52-.58.11-1.17.17-1.77.17s-1.2-.06-1.77-.17c-.58-.12-1.15-.29-1.71-.52a9.044 9.044 0 0 1-4.09-3.35l-.02-.03c-.32-.48-.6-1-.82-1.55-.23-.55-.4-1.12-.52-1.7a9.48 9.48 0 0 1-.17-1.77c0-.6.06-1.2.17-1.77.12-.58.29-1.15.52-1.7a9.044 9.044 0 0 1 3.35-4.09l.03-.02c.48-.32 1-.6 1.55-.82.55-.23 1.12-.4 1.7-.52.59-.13 1.19-.19 1.79-.19zm1.96 4.38c-.3-.12-.62-.22-.95-.29-.32-.06-.66-.1-1.01-.1s-.69.03-1.01.1c-.34.07-.66.16-.95.29a4.96 4.96 0 0 0-1.66 1.12c-.25.25-.46.51-.65.78-.19.28-.34.57-.47.87-.12.3-.22.62-.29.95-.06.32-.1.66-.1 1.01s.03.69.1 1.01c.07.34.16.66.29.95.13.31.28.6.47.87.18.27.4.53.65.78s.51.46.78.65c.27.18.57.34.88.47l.03.02c.29.12.59.21.92.27.32.06.66.1 1.01.1s.69-.03 1.01-.1c.34-.07.65-.16.95-.28.31-.13.6-.29.88-.47.27-.18.53-.4.78-.65s.46-.51.65-.78c.19-.28.34-.57.47-.87.12-.3.22-.62.29-.95.06-.32.1-.66.1-1.01s-.03-.69-.1-1.01a4.58 4.58 0 0 0-.29-.95c-.13-.31-.28-.6-.47-.88-.19-.28-.4-.54-.64-.78l-.05-.05c-.23-.22-.47-.42-.73-.59-.28-.2-.58-.36-.89-.48zm39.62-4.38c.6 0 1.2.06 1.77.18.58.12 1.15.29 1.7.52a8.832 8.832 0 0 1 2.89 1.91c.02.02.05.04.07.06.42.42.8.88 1.13 1.38l.02.03c.32.48.6 1 .82 1.55.23.55.4 1.12.52 1.7.11.58.17 1.17.17 1.77 0 .6-.06 1.2-.17 1.77-.12.58-.29 1.15-.52 1.71a9.044 9.044 0 0 1-3.35 4.09l-.03.02c-.49.32-1 .6-1.55.82-.55.23-1.12.4-1.71.52-.58.11-1.17.17-1.77.17-.6 0-1.2-.06-1.77-.17-.58-.12-1.15-.29-1.71-.52-.57-.24-1.1-.52-1.58-.84l-.05-.04a9.42 9.42 0 0 1-1.33-1.09c-.42-.42-.8-.88-1.13-1.38l-.02-.03c-.32-.48-.6-1-.82-1.55-.23-.55-.4-1.12-.52-1.7-.11-.58-.18-1.17-.18-1.77 0-.6.06-1.2.18-1.77.12-.58.29-1.15.52-1.7a9.044 9.044 0 0 1 1.97-2.96c.41-.41.88-.79 1.38-1.13.49-.33 1.02-.61 1.58-.85a9.058 9.058 0 0 1 3.49-.7zm1.97 4.38c-.3-.12-.62-.22-.95-.29-.32-.06-.66-.1-1.01-.1s-.69.03-1.01.1c-.34.07-.66.16-.95.29a4.96 4.96 0 0 0-1.66 1.12c-.25.25-.46.51-.65.78-.19.28-.34.57-.47.87-.12.3-.22.62-.29.95-.06.32-.1.66-.1 1.01s.03.69.1 1.01c.07.34.16.66.29.95.13.31.28.6.47.87.18.27.4.53.65.78s.51.46.78.65c.27.18.57.34.88.47l.03.02c.29.12.59.21.92.27.32.06.66.1 1.01.1s.69-.03 1.01-.1c.34-.07.65-.16.95-.28.31-.13.6-.29.88-.47.28-.19.54-.4.78-.64.25-.25.46-.51.65-.78.19-.28.34-.57.47-.87.12-.3.22-.62.29-.95.06-.32.1-.66.1-1.01s-.03-.69-.1-1.01a4.58 4.58 0 0 0-.29-.95c-.13-.31-.28-.6-.47-.88-.19-.28-.4-.54-.64-.78l-.05-.05c-.23-.22-.47-.42-.73-.59-.29-.21-.58-.37-.89-.49zm-66.13-2.23v30.87c0 1.66.33 3.24.93 4.69a12.5 12.5 0 0 0 2.68 4c1.14 1.14 2.5 2.06 4 2.68 1.44.6 3.03.93 4.69.93h62.13c1.66 0 3.24-.33 4.69-.93 1.5-.63 2.86-1.54 4-2.68s2.06-2.5 2.68-4c.6-1.44.93-3.03.93-4.69V42.22c0-1.66-.33-3.25-.93-4.69a12.5 12.5 0 0 0-2.68-4c-1.14-1.14-2.5-2.06-4-2.68-1.44-.6-3.03-.93-4.69-.93H30.5c-1.66 0-3.24.33-4.69.93a12.5 12.5 0 0 0-4 2.68c-1.14 1.14-2.06 2.5-2.68 4-.6 1.44-.93 3.03-.93 4.69v3.65h-.01zm-3.99 1.99H7.09c-.42 0-.82.08-1.18.23-.38.16-.72.39-1.01.68l-.04.03c-.27.28-.49.61-.64.97-.15.36-.23.76-.23 1.18v18.92c0 .42.08.82.23 1.18.16.38.39.72.68 1.01.56.56 1.33.91 2.18.91h7.11V47.86h.01zm101.59 0h-6.86v25.11h6.86c.42 0 .82-.08 1.18-.23.38-.16.72-.39 1.01-.68.29-.29.52-.63.68-1.01.15-.36.23-.76.23-1.18V50.96c0-.42-.08-.82-.23-1.18-.16-.38-.39-.72-.68-1.01-.29-.29-.63-.52-1.01-.68-.36-.14-.76-.23-1.18-.23z"/><style>path{fill:#000}@media (prefers-color-scheme:dark){path{fill:#fff}}</style></svg>