<svg xmlns="http://www.w3.org/2000/svg" viewBox="0 0 320 240"><path stroke="currentColor" stroke-linecap="square" stroke-width="2" d="M220 40h40M220 40v8"/><path fill="none" stroke="currentColor" stroke-linecap="square" stroke-width="2" d="M212 48h16l-8 8-8-8Z"/><path stroke="currentColor" stroke-linecap="square" stroke-width="2" d="M260 40v15M260 95v15"/><path fill="none" stroke="currentColor" stroke-linecap="square" stroke-width="2" d="M260 55v2l-7 3 14 6-14 6 14 6-14 6 14 6-7 3v2"/><text fill="currentColor" x="246" y="75" dominant-baseline="middle" font-family="Arial" font-size="11" text-anchor="end">220 Ω</text><path stroke="currentColor" stroke-linecap="square" stroke-width="2" d="M150 160h110M260 150v10M150 160v10"/><path fill="none" stroke="currentColor" stroke-width="2" d="M25 25h120v195H25z"/><text fill="currentColor" x="61" y="55" dominant-baseline="middle" font-family="Arial" font-size="11">ARDUINO</text><text fill="currentColor" x="68" y="65" dominant-baseline="middle" font-family="Arial" font-size="11">UNO r3</text><path stroke="currentColor" stroke-linecap="square" stroke-width="2" d="M20 80h5M20 90h5M20 100h5M20 110h5M20 120h5M20 130h5M20 140h5M20 160h5M20 170h5M20 180h5M20 190h5M20 200h5M20 210h5M145 50h5M145 60h5M145 70h5M145 80h5M145 90h5M145 100h5M145 110h5M145 120h5M145 140h5M145 150h5M145 160h5M145 170h5M145 180h5M145 190h5M145 200h5M145 210h5"/><text fill="currentColor" x="29" y="80" dominant-baseline="middle" font-family="Arial" font-size="11">IOREF</text><text fill="currentColor" x="29" y="90" dominant-baseline="middle" font-family="Arial" font-size="11">RESET</text><text fill="currentColor" x="29" y="100" dominant-baseline="middle" font-family="Arial" font-size="11">3.3V</text><text fill="currentColor" x="29" y="110" dominant-baseline="middle" font-family="Arial" font-size="11">5V</text><text fill="currentColor" x="29" y="120" dominant-baseline="middle" font-family="Arial" font-size="11">GND</text><text fill="currentColor" x="29" y="130" dominant-baseline="middle" font-family="Arial" font-size="11">GND</text><text fill="currentColor" x="29" y="140" dominant-baseline="middle" font-family="Arial" font-size="11">Vin</text><text fill="currentColor" x="29" y="160" dominant-baseline="middle" font-family="Arial" font-size="11">A0</text><text fill="currentColor" x="29" y="170" dominant-baseline="middle" font-family="Arial" font-size="11">A1</text><text fill="currentColor" x="29" y="180" dominant-baseline="middle" font-family="Arial" font-size="11">A2</text><text fill="currentColor" x="29" y="190" dominant-baseline="middle" font-family="Arial" font-size="11">A3</text><text fill="currentColor" x="29" y="200" dominant-baseline="middle" font-family="Arial" font-size="11">A4</text><text fill="currentColor" x="29" y="210" dominant-baseline="middle" font-family="Arial" font-size="11">A5</text><text fill="currentColor" x="141" y="50" dominant-baseline="middle" font-family="Arial" font-size="11" text-anchor="end">AREF</text><text fill="currentColor" x="141" y="60" dominant-baseline="middle" font-family="Arial" font-size="11" text-anchor="end">GND</text><text fill="currentColor" x="141" y="70" dominant-baseline="middle" font-family="Arial" font-size="11" text-anchor="end">D13</text><text fill="currentColor" x="141" y="80" dominant-baseline="middle" font-family="Arial" font-size="11" text-anchor="end">D12</text><text fill="currentColor" x="141" y="90" dominant-baseline="middle" font-family="Arial" font-size="11" text-anchor="end">PWM D11</text><text fill="currentColor" x="141" y="100" dominant-baseline="middle" font-family="Arial" font-size="11" text-anchor="end">PWM D10</text><text fill="currentColor" x="141" y="110" dominant-baseline="middle" font-family="Arial" font-size="11" text-anchor="end">PWM   D9</text><text fill="currentColor" x="141" y="120" dominant-baseline="middle" font-family="Arial" font-size="11" text-anchor="end">D8</text><text fill="currentColor" x="141" y="140" dominant-baseline="middle" font-family="Arial" font-size="11" text-anchor="end">D7</text><text fill="currentColor" x="141" y="150" dominant-baseline="middle" font-family="Arial" font-size="11" text-anchor="end">PWM   D6</text><text fill="currentColor" x="141" y="160" dominant-baseline="middle" font-family="Arial" font-size="11" text-anchor="end">PWM   D5</text><text fill="currentColor" x="141" y="170" dominant-baseline="middle" font-family="Arial" font-size="11" text-anchor="end">D4</text><text fill="currentColor" x="141" y="180" dominant-baseline="middle" font-family="Arial" font-size="11" text-anchor="end">PWM   D3</text><text fill="currentColor" x="141" y="190" dominant-baseline="middle" font-family="Arial" font-size="11" text-anchor="end">D2</text><text fill="currentColor" x="141" y="200" dominant-baseline="middle" font-family="Arial" font-size="11" text-anchor="end">TX   D1</text><text fill="currentColor" x="141" y="210" dominant-baseline="middle" font-family="Arial" font-size="11" text-anchor="end">RX   D0</text><path fill="none" stroke="currentColor" stroke-linecap="square" stroke-width="2" d="M85 40c2 9 15 9 15 0s-13-9-15 0M85 40c-2-9-15-9-15 0s13 9 15 0"/><path stroke="currentColor" stroke-linecap="square" stroke-width="2" d="M91 40h4M93 42v-4M79 40h-4M260 150v-40"/><path fill="none" stroke="currentColor" stroke-linecap="square" stroke-width="2" d="M252 123h16m-8 0 8 15h-16l8-15M271 127l8-8m1-1-2 4-2-2 4-2-2 4M264 121l8-8m1-1-2 4-2-2 4-2-2 4"/><circle cx="150" cy="160" r="2" stroke="currentColor" stroke-width="2"/></svg>